<?xml version="1.0" encoding="utf-8"?>
<!-- Generator: Adobe Illustrator 24.1.2, SVG Export Plug-In . SVG Version: 6.00 Build 0)  -->
<svg version="1.1" id="图层_1" xmlns="http://www.w3.org/2000/svg" xmlns:xlink="http://www.w3.org/1999/xlink" x="0px" y="0px"
	 viewBox="0 0 125.48 53.43" style="enable-background:new 0 0 125.48 53.43;" xml:space="preserve">
<style type="text/css">
	.st0{fill:#FFFFFF;}
	.st1{font-family:'SegoePro';}
	.st2{font-size:7.36px;}
	.st3{fill:#108239;}
	.st4{clip-path:url(#SVGID_2_);fill:#FFFFFF;}
	.st5{fill:#12100B;}
	.st6{clip-path:url(#SVGID_4_);fill:#FFFFFF;}
</style>
<g>
	<text transform="matrix(1 0 0 1 40.1989 24.8459)"><tspan x="0" y="0" class="st0 st1 st2">D</tspan><tspan x="3.69" y="0" class="st0 st1 st2">o</tspan></text>
	<text transform="matrix(1 0 0 1 49.0534 24.8459)" class="st0 st1 st2">w</text>
	<text transform="matrix(1 0 0 1 54.3009 24.8459)" class="st0 st1 st2">n</text>
	<text transform="matrix(1 0 0 1 58.3341 24.8459)"><tspan x="0" y="0" class="st0 st1 st2">l</tspan><tspan x="3.65" y="0" class="st0 st1 st2">o</tspan></text>
	<text transform="matrix(1 0 0 1 64.0822 24.8459)" class="st0 st1 st2">a</text>
	<text transform="matrix(1 0 0 1 67.6295 24.8459)" class="st0 st1 st2">d</text>
	<text transform="matrix(1 0 0 1 71.7809 24.8459)" class="st0 st1 st2"> </text>
	<text transform="matrix(1 0 0 1 73.194 24.8459)" class="st0 st1 st2">f</text>
	<text transform="matrix(1 0 0 1 75.3576 24.8459)" class="st0 st1 st2">r</text>
	<text transform="matrix(1 0 0 1 77.6247 24.8459)"><tspan x="0" y="0" class="st0 st1 st2">o</tspan><tspan x="3.66" y="0" class="st0 st1 st2">m</tspan></text>
	<polyline class="st3" points="112.63,40.47 112.63,14.87 14.07,14.87 14.07,40.47 	"/>
	<g>
		<defs>
			<polyline id="SVGID_1_" points="112.63,40.47 112.63,14.87 14.07,14.87 14.07,40.47 			"/>
		</defs>
		<clipPath id="SVGID_2_">
			<use xlink:href="#SVGID_1_"  style="overflow:visible;"/>
		</clipPath>
		<path class="st4" d="M26.96,19.71c0.03,0.14,0.05,0.32,0.05,0.52c-0.74,0.32-1.02,0.55-1.01,1.64v0.67l-0.5,0.1v-0.77
			C25.5,20.25,26.11,20,26.96,19.71 M28.42,19.36c0.03,0.16,0.06,0.33,0.08,0.51c1.32-0.19,1.29,0.36,1.29,1.49v0.42l0.5-0.1v-0.32
			C30.29,19.59,30.02,19.12,28.42,19.36 M23.23,23.09v-2.32c-0.02-1.44,0.73-1.88,2.1-2.2c2.06-0.48,2.19,0.85,2.19,1.69v1.96
			l0.5-0.1v-1.82c0-1.6-0.5-2.8-2.8-2.28c-1.24,0.28-2.5,0.6-2.5,2.7v2.47L23.23,23.09z M29.27,29.19h-3.88v-2.81l3.88-0.57V29.19z
			 M29.27,33.15l-3.88-0.57v-3.02h3.88V33.15z M25,29.19h-3.08v-2.35L25,26.4V29.19z M25,32.56l-3.08-0.43v-2.56H25V32.56z
			 M32.82,21.78l-13.88,2.78v10.09l13.88,2.78l2.77-1.01V22.79L32.82,21.78z"/>
	</g>
	<text transform="matrix(1 0 0 1 40.1989 24.8459)"><tspan x="0" y="0" class="st0 st1 st2">D</tspan><tspan x="3.69" y="0" class="st0 st1 st2">o</tspan></text>
	<text transform="matrix(1 0 0 1 49.0534 24.8459)" class="st0 st1 st2">w</text>
	<text transform="matrix(1 0 0 1 54.3009 24.8459)" class="st0 st1 st2">n</text>
	<text transform="matrix(1 0 0 1 58.3341 24.8459)"><tspan x="0" y="0" class="st0 st1 st2">l</tspan><tspan x="3.65" y="0" class="st0 st1 st2">o</tspan></text>
	<text transform="matrix(1 0 0 1 64.0822 24.8459)" class="st0 st1 st2">a</text>
	<text transform="matrix(1 0 0 1 67.6295 24.8459)" class="st0 st1 st2">d</text>
	<text transform="matrix(1 0 0 1 71.7809 24.8459)" class="st0 st1 st2"> </text>
	<text transform="matrix(1 0 0 1 73.194 24.8459)" class="st0 st1 st2">f</text>
	<text transform="matrix(1 0 0 1 75.3576 24.8459)" class="st0 st1 st2">r</text>
	<text transform="matrix(1 0 0 1 77.6247 24.8459)"><tspan x="0" y="0" class="st0 st1 st2">o</tspan><tspan x="3.66" y="0" class="st0 st1 st2">m</tspan></text>
	<polyline class="st5" points="112.63,40.47 112.63,14.87 14.07,14.87 14.07,40.47 	"/>
	<g>
		<defs>
			<polyline id="SVGID_3_" points="112.63,40.47 112.63,14.87 14.07,14.87 14.07,40.47 			"/>
		</defs>
		<clipPath id="SVGID_4_">
			<use xlink:href="#SVGID_3_"  style="overflow:visible;"/>
		</clipPath>
		<path class="st6" d="M26.96,19.71c0.03,0.14,0.05,0.32,0.05,0.52c-0.74,0.32-1.02,0.55-1.01,1.64v0.67l-0.5,0.1v-0.77
			C25.5,20.25,26.11,20,26.96,19.71 M28.42,19.36c0.03,0.16,0.06,0.33,0.08,0.51c1.32-0.19,1.29,0.36,1.29,1.49v0.42l0.5-0.1v-0.32
			C30.29,19.59,30.02,19.12,28.42,19.36 M23.23,23.09v-2.32c-0.02-1.44,0.73-1.88,2.1-2.2c2.06-0.48,2.19,0.85,2.19,1.69v1.96
			l0.5-0.1v-1.82c0-1.6-0.5-2.8-2.8-2.28c-1.24,0.28-2.5,0.6-2.5,2.7v2.47L23.23,23.09z M29.27,29.19h-3.88v-2.81l3.88-0.57V29.19z
			 M29.27,33.15l-3.88-0.57v-3.02h3.88V33.15z M25,29.19h-3.08v-2.35L25,26.4V29.19z M25,32.56l-3.08-0.43v-2.56H25V32.56z
			 M32.82,21.78l-13.88,2.78v10.09l13.88,2.78l2.77-1.01V22.79L32.82,21.78z"/>
		<path class="st6" d="M45.01,22.16c0,0.52-0.11,0.97-0.34,1.37c-0.23,0.39-0.55,0.7-0.96,0.91c-0.42,0.21-0.9,0.32-1.43,0.32h-1.34
			v-5.07h1.4C44.11,19.68,45.01,20.51,45.01,22.16 M44.39,22.17c0-1.3-0.69-1.95-2.07-1.95h-0.79v4h0.75c0.67,0,1.19-0.18,1.56-0.54
			C44.2,23.33,44.39,22.82,44.39,22.17 M49.22,22.93c0,0.57-0.16,1.04-0.49,1.39c-0.33,0.35-0.76,0.53-1.31,0.53
			c-0.54,0-0.96-0.17-1.28-0.51c-0.32-0.34-0.48-0.79-0.48-1.35c0-0.6,0.16-1.07,0.49-1.42c0.33-0.35,0.78-0.52,1.36-0.52
			c0.54,0,0.96,0.17,1.26,0.5C49.07,21.89,49.22,22.35,49.22,22.93 M48.63,22.95c0-0.46-0.1-0.8-0.3-1.05
			c-0.2-0.24-0.49-0.36-0.87-0.36c-0.37,0-0.67,0.12-0.88,0.37c-0.22,0.25-0.33,0.6-0.33,1.05c0,0.44,0.11,0.77,0.33,1.02
			c0.22,0.24,0.51,0.37,0.88,0.37c0.38,0,0.67-0.12,0.87-0.36C48.53,23.75,48.63,23.4,48.63,22.95 M54.68,21.13l-1.09,3.62H53
			l-0.75-2.59c-0.02-0.09-0.04-0.2-0.06-0.33h-0.01c-0.01,0.08-0.03,0.19-0.07,0.33l-0.81,2.6h-0.58l-1.09-3.62h0.61l0.75,2.72
			c0.02,0.09,0.04,0.2,0.05,0.33h0.03c0-0.09,0.03-0.2,0.07-0.33l0.83-2.72h0.53l0.75,2.73c0.02,0.09,0.04,0.2,0.05,0.33h0.03
			c0.01-0.11,0.02-0.22,0.06-0.33l0.74-2.73H54.68z M58.37,24.76h-0.58v-2.07c0-0.77-0.28-1.15-0.84-1.15
			c-0.29,0-0.53,0.11-0.72,0.32c-0.19,0.22-0.29,0.49-0.29,0.83v2.07h-0.58v-3.62h0.58v0.6h0.01c0.27-0.46,0.67-0.69,1.19-0.69
			c0.4,0,0.7,0.13,0.91,0.39c0.21,0.26,0.31,0.63,0.31,1.1V24.76z M60.04,24.76h-0.58v-5.36h0.58V24.76z M64.51,22.93
			c0,0.57-0.16,1.04-0.49,1.39c-0.33,0.35-0.77,0.53-1.31,0.53c-0.54,0-0.96-0.17-1.28-0.51c-0.32-0.34-0.48-0.79-0.48-1.35
			c0-0.6,0.16-1.07,0.49-1.42c0.33-0.35,0.78-0.52,1.35-0.52c0.54,0,0.96,0.17,1.26,0.5C64.35,21.89,64.51,22.35,64.51,22.93
			 M63.91,22.95c0-0.46-0.1-0.8-0.3-1.05c-0.2-0.24-0.49-0.36-0.86-0.36c-0.37,0-0.67,0.12-0.89,0.37c-0.22,0.25-0.32,0.6-0.32,1.05
			c0,0.44,0.11,0.77,0.33,1.02c0.22,0.24,0.51,0.37,0.88,0.37c0.38,0,0.67-0.12,0.87-0.36C63.81,23.75,63.91,23.4,63.91,22.95
			 M67.97,24.76h-0.58v-0.57h-0.01c-0.25,0.44-0.63,0.66-1.11,0.66c-0.35,0-0.63-0.1-0.84-0.29c-0.21-0.19-0.32-0.45-0.32-0.77
			c0-0.67,0.4-1.07,1.2-1.18l1.09-0.15c0-0.61-0.25-0.92-0.75-0.92c-0.44,0-0.83,0.15-1.18,0.44v-0.59
			c0.11-0.08,0.29-0.16,0.54-0.23c0.26-0.07,0.49-0.11,0.69-0.11c0.85,0,1.28,0.45,1.28,1.36V24.76z M67.39,22.92l-0.88,0.12
			c-0.3,0.04-0.51,0.11-0.63,0.21c-0.12,0.1-0.18,0.26-0.18,0.49c0,0.18,0.06,0.33,0.19,0.44c0.13,0.11,0.29,0.17,0.5,0.17
			c0.29,0,0.53-0.1,0.71-0.3c0.19-0.2,0.28-0.46,0.28-0.76V22.92z M72.13,24.76h-0.58v-0.62h-0.01c-0.27,0.47-0.69,0.71-1.25,0.71
			c-0.46,0-0.82-0.17-1.09-0.49c-0.27-0.33-0.41-0.77-0.41-1.32c0-0.6,0.15-1.08,0.45-1.44c0.3-0.36,0.7-0.54,1.21-0.54
			c0.49,0,0.86,0.2,1.09,0.59h0.01v-2.24h0.58V24.76z M71.55,23.12v-0.54c0-0.3-0.1-0.55-0.3-0.75c-0.2-0.2-0.44-0.3-0.73-0.3
			c-0.35,0-0.63,0.13-0.83,0.39c-0.2,0.26-0.31,0.62-0.31,1.07c0,0.41,0.1,0.74,0.29,0.99c0.19,0.24,0.45,0.36,0.78,0.36
			c0.32,0,0.58-0.12,0.79-0.35C71.44,23.77,71.55,23.48,71.55,23.12 M76.78,19.9c-0.11-0.06-0.24-0.1-0.39-0.1
			c-0.4,0-0.61,0.26-0.61,0.77v0.56h0.85v0.49h-0.85v3.13h-0.58v-3.13h-0.62v-0.49h0.62v-0.59c0-0.37,0.11-0.66,0.33-0.89
			c0.22-0.23,0.49-0.34,0.83-0.34c0.18,0,0.32,0.02,0.42,0.06V19.9z M79.15,21.72c-0.1-0.08-0.25-0.12-0.44-0.12
			c-0.26,0-0.46,0.12-0.63,0.36c-0.16,0.24-0.24,0.56-0.24,0.94v1.85h-0.58v-3.62h0.58v0.75h0.01c0.08-0.25,0.2-0.45,0.37-0.59
			c0.17-0.14,0.36-0.22,0.58-0.22c0.15,0,0.27,0.02,0.35,0.05V21.72z M82.98,22.93c0,0.57-0.16,1.04-0.49,1.39
			c-0.33,0.35-0.77,0.53-1.32,0.53c-0.53,0-0.96-0.17-1.28-0.51c-0.32-0.34-0.48-0.79-0.48-1.35c0-0.6,0.16-1.07,0.49-1.42
			c0.33-0.35,0.78-0.52,1.36-0.52c0.54,0,0.96,0.17,1.26,0.5C82.83,21.89,82.98,22.35,82.98,22.93 M82.38,22.95
			c0-0.46-0.1-0.8-0.3-1.05c-0.2-0.24-0.49-0.36-0.86-0.36c-0.37,0-0.67,0.12-0.89,0.37c-0.22,0.25-0.33,0.6-0.33,1.05
			c0,0.44,0.11,0.77,0.33,1.02c0.22,0.24,0.51,0.37,0.88,0.37c0.38,0,0.67-0.12,0.87-0.36C82.28,23.75,82.38,23.4,82.38,22.95
			 M89.02,24.76h-0.58v-2.08c0-0.4-0.06-0.7-0.19-0.87c-0.12-0.18-0.33-0.26-0.63-0.26c-0.25,0-0.46,0.11-0.63,0.34
			c-0.17,0.23-0.26,0.5-0.26,0.81v2.07h-0.58v-2.15c0-0.71-0.27-1.07-0.82-1.07c-0.25,0-0.46,0.11-0.63,0.32
			c-0.17,0.21-0.25,0.49-0.25,0.83v2.07h-0.58v-3.62h0.58v0.57h0.01c0.26-0.44,0.63-0.66,1.12-0.66c0.23,0,0.45,0.07,0.64,0.2
			c0.19,0.13,0.32,0.32,0.39,0.55c0.27-0.5,0.67-0.75,1.2-0.75c0.8,0,1.2,0.49,1.2,1.48V24.76z"/>
		<path class="st6" d="M50.21,28.01l-2.13,7.56h-1.04l-1.56-5.53c-0.06-0.21-0.1-0.46-0.11-0.76h-0.02
			c-0.03,0.26-0.08,0.51-0.14,0.75l-1.57,5.54h-1.03l-2.21-7.56h0.97l1.61,5.8c0.07,0.26,0.11,0.51,0.13,0.76h0.02
			c0.02-0.21,0.07-0.47,0.16-0.76l1.68-5.8h0.85l1.6,5.84c0.06,0.22,0.1,0.45,0.13,0.7h0.02c0.02-0.18,0.07-0.42,0.14-0.72
			l1.54-5.82H50.21z M51.93,28.4c0,0.16-0.06,0.3-0.17,0.4c-0.11,0.11-0.25,0.16-0.4,0.16c-0.16,0-0.29-0.05-0.4-0.15
			c-0.11-0.11-0.16-0.24-0.16-0.41c0-0.15,0.06-0.28,0.16-0.39c0.11-0.11,0.24-0.17,0.4-0.17c0.16,0,0.3,0.06,0.41,0.16
			C51.87,28.11,51.93,28.25,51.93,28.4 M51.78,35.57h-0.86v-5.4h0.86V35.57z M57.57,35.57H56.7v-3.08c0-1.14-0.42-1.71-1.25-1.71
			c-0.43,0-0.78,0.16-1.07,0.48c-0.29,0.32-0.43,0.73-0.43,1.23v3.08h-0.86v-5.4h0.86v0.9h0.02c0.41-0.68,0.99-1.03,1.77-1.03
			c0.59,0,1.05,0.19,1.36,0.58c0.31,0.39,0.47,0.93,0.47,1.64V35.57z M63.56,35.57H62.7v-0.92h-0.02c-0.4,0.7-1.02,1.05-1.85,1.05
			c-0.68,0-1.22-0.25-1.63-0.73c-0.4-0.49-0.6-1.14-0.6-1.96c0-0.89,0.22-1.61,0.67-2.15c0.45-0.54,1.05-0.81,1.8-0.81
			c0.74,0,1.28,0.29,1.62,0.87h0.02v-3.34h0.86V35.57z M62.7,33.13v-0.8c0-0.45-0.15-0.82-0.44-1.11c-0.3-0.29-0.66-0.44-1.08-0.44
			c-0.52,0-0.93,0.19-1.24,0.58c-0.31,0.38-0.46,0.92-0.46,1.6c0,0.62,0.15,1.11,0.43,1.47c0.29,0.36,0.68,0.54,1.17,0.54
			c0.47,0,0.86-0.17,1.17-0.52C62.55,34.11,62.7,33.67,62.7,33.13 M69.94,32.85c0,0.86-0.24,1.55-0.73,2.07
			c-0.49,0.52-1.14,0.78-1.96,0.78c-0.8,0-1.43-0.25-1.91-0.76c-0.48-0.51-0.71-1.18-0.71-2c0-0.89,0.24-1.6,0.73-2.12
			c0.49-0.52,1.16-0.78,2.02-0.78c0.8,0,1.43,0.25,1.88,0.75C69.72,31.29,69.94,31.98,69.94,32.85 M69.06,32.88
			c0-0.68-0.15-1.2-0.45-1.56c-0.3-0.36-0.73-0.54-1.29-0.54c-0.55,0-0.99,0.19-1.32,0.56c-0.32,0.37-0.48,0.89-0.48,1.57
			c0,0.65,0.16,1.15,0.49,1.51c0.32,0.36,0.76,0.55,1.31,0.55c0.56,0,0.99-0.18,1.29-0.54C68.91,34.07,69.06,33.55,69.06,32.88
			 M77.81,30.17l-1.62,5.4h-0.9l-1.11-3.86c-0.04-0.13-0.07-0.3-0.08-0.5h-0.02c-0.01,0.12-0.05,0.28-0.11,0.48l-1.21,3.87H71.9
			l-1.63-5.4h0.91l1.11,4.06c0.03,0.14,0.06,0.3,0.07,0.49h0.04c0.01-0.13,0.04-0.3,0.1-0.5l1.24-4.05h0.79l1.12,4.07
			c0.03,0.14,0.06,0.3,0.07,0.49h0.04c0.01-0.17,0.04-0.33,0.08-0.49l1.1-4.07H77.81z M81.49,34.13c0,0.47-0.18,0.85-0.54,1.14
			c-0.36,0.29-0.84,0.44-1.44,0.44c-0.51,0-0.96-0.11-1.34-0.33v-0.93c0.42,0.34,0.89,0.52,1.4,0.52c0.68,0,1.03-0.25,1.03-0.75
			c0-0.2-0.07-0.37-0.2-0.5c-0.13-0.13-0.44-0.3-0.91-0.52c-0.48-0.2-0.81-0.42-1.01-0.66c-0.2-0.23-0.29-0.54-0.29-0.93
			c0-0.45,0.18-0.82,0.54-1.12c0.36-0.3,0.81-0.45,1.36-0.45c0.43,0,0.81,0.08,1.15,0.25v0.87c-0.35-0.26-0.76-0.39-1.22-0.39
			c-0.29,0-0.51,0.07-0.69,0.21c-0.17,0.14-0.26,0.32-0.26,0.54c0,0.24,0.07,0.42,0.2,0.55c0.13,0.13,0.41,0.28,0.83,0.45
			c0.51,0.22,0.87,0.45,1.08,0.69C81.39,33.46,81.49,33.77,81.49,34.13"/>
		<path class="st6" d="M89.18,33.67c0,0.63-0.23,1.13-0.67,1.5c-0.45,0.36-1.06,0.54-1.83,0.54c-0.28,0-0.6-0.05-0.95-0.14
			c-0.35-0.09-0.6-0.19-0.75-0.29v-1.05c0.21,0.19,0.5,0.35,0.85,0.48c0.35,0.13,0.68,0.2,0.98,0.2c0.97,0,1.45-0.38,1.45-1.13
			c0-0.32-0.1-0.59-0.31-0.81c-0.21-0.23-0.63-0.52-1.28-0.89c-0.62-0.35-1.06-0.69-1.31-1c-0.25-0.32-0.38-0.7-0.38-1.15
			c0-0.6,0.22-1.08,0.67-1.46c0.45-0.38,1.02-0.56,1.73-0.56c0.68,0,1.17,0.09,1.49,0.27v0.99c-0.39-0.31-0.9-0.46-1.53-0.46
			c-0.42,0-0.76,0.1-1.02,0.31c-0.27,0.21-0.4,0.49-0.4,0.83c0,0.25,0.04,0.45,0.12,0.6c0.08,0.15,0.21,0.3,0.4,0.45
			c0.19,0.15,0.5,0.35,0.95,0.6c0.67,0.37,1.13,0.72,1.4,1.05C89.05,32.86,89.18,33.24,89.18,33.67 M92.75,35.52
			c-0.21,0.12-0.48,0.17-0.81,0.17c-0.94,0-1.41-0.53-1.41-1.59v-3.19H89.6v-0.73h0.93v-1.32l0.86-0.28v1.6h1.36v0.73H91.4v3.05
			c0,0.36,0.06,0.62,0.18,0.77c0.12,0.15,0.33,0.23,0.62,0.23c0.21,0,0.4-0.06,0.56-0.17V35.52z M98.71,32.85
			c0,0.86-0.24,1.55-0.73,2.07c-0.49,0.52-1.14,0.78-1.96,0.78c-0.8,0-1.43-0.25-1.91-0.76c-0.48-0.51-0.71-1.18-0.71-2
			c0-0.89,0.24-1.6,0.73-2.12c0.49-0.52,1.16-0.78,2.02-0.78c0.8,0,1.43,0.25,1.88,0.75C98.49,31.29,98.71,31.98,98.71,32.85
			 M97.83,32.88c0-0.68-0.15-1.2-0.45-1.56c-0.3-0.36-0.73-0.54-1.29-0.54c-0.56,0-1,0.19-1.32,0.56c-0.32,0.37-0.48,0.89-0.48,1.57
			c0,0.65,0.16,1.15,0.49,1.52c0.32,0.36,0.76,0.54,1.31,0.54c0.56,0,0.99-0.18,1.29-0.54C97.68,34.07,97.83,33.56,97.83,32.88
			 M102.43,31.05c-0.15-0.12-0.37-0.17-0.66-0.17c-0.38,0-0.69,0.18-0.93,0.54c-0.24,0.36-0.36,0.83-0.36,1.41v2.75h-0.86v-5.4h0.86
			v1.11h0.02c0.12-0.37,0.3-0.67,0.55-0.88c0.25-0.21,0.54-0.32,0.86-0.32c0.23,0,0.4,0.02,0.52,0.07V31.05z M107.64,33.09h-3.81
			c0.01,0.61,0.18,1.07,0.48,1.39c0.31,0.32,0.73,0.48,1.28,0.48c0.61,0,1.17-0.2,1.67-0.59v0.81c-0.47,0.35-1.1,0.52-1.88,0.52
			c-0.77,0-1.37-0.25-1.8-0.75c-0.43-0.5-0.65-1.18-0.65-2.06c0-0.53,0.11-1.02,0.32-1.46c0.22-0.44,0.51-0.78,0.89-1.03
			c0.38-0.24,0.8-0.36,1.26-0.36c0.7,0,1.25,0.23,1.64,0.68c0.39,0.45,0.59,1.09,0.59,1.91V33.09z M106.75,32.36
			c-0.01-0.5-0.13-0.89-0.36-1.16c-0.23-0.28-0.56-0.41-0.99-0.41c-0.4,0-0.74,0.14-1.03,0.43c-0.29,0.29-0.46,0.67-0.54,1.14
			H106.75z"/>
	</g>
</g>
</svg>
